<svg id="Laag_1" data-name="Laag 1" xmlns="http://www.w3.org/2000/svg" viewBox="0 6.5 64 64"><path d="M0,64V0H64V64Z" fill="none"/><path d="M7.5,54.9l24,8.5h0c.05,0,.1.05.15.05h.65c.05,0,.1-.05.15-.05h0l24-8.5a1.5,1.5,0,0,0,1-1.4V36.7l5-1.75a1.59,1.59,0,0,0,.9-.9,1.51,1.51,0,0,0-.15-1.3l-6-10V22.7c0-.05-.05-.05-.05-.1v-.05h0c0-.05,0-.05,0-.1l-.05-.05,0,0h0c-.05,0-.05-.05-.1-.05l-.05-.05h-.1c-.05,0-.05-.05-.1-.05s-.05,0-.1-.05h0l-24-8.5a.63.63,0,0,0-.3-.05h-.4c-.1,0-.2.05-.3.05l-24,8.5h0a0,0,0,0,0,0,.05h0c-.05.05-.15.05-.2.1h0a1.33,1.33,0,0,0-.3.25h0l-.05.05h0s0,.1-.1.1h0l0,.05-6,10A1.55,1.55,0,0,0,.6,34a1.59,1.59,0,0,0,.9.9l5,1.75V53.5a1.46,1.46,0,0,0,1,1.4Zm47-2.45-21,7.45v-12a1.5,1.5,0,1,0-3,0v12l-21-7.45V37.75l16,5.65a1.78,1.78,0,0,0,.5.1,1.51,1.51,0,0,0,1.3-.75L32,34.9l4.7,7.85a1.51,1.51,0,0,0,1.3.75,1.78,1.78,0,0,0,.5-.1l16-5.65ZM33.5,17.1l18,6.4-18,6.4Zm5.15,23.1L34.2,32.8l21.1-7.5,4.45,7.4Zm-30-14.9,21.1,7.5L25.3,40.2,4.2,32.7Z" fill="#fff"/></svg>