<svg id="Laag_1" data-name="Laag 1" xmlns="http://www.w3.org/2000/svg" viewBox="0 0 343.81 68"><path d="M356.33,34.66V15.81a4.91,4.91,0,0,0-4.91-4.9H176.23a4.91,4.91,0,0,0-4.9,4.9V34.66a10.25,10.25,0,0,1,0,20.5V74a4.91,4.91,0,0,0,4.9,4.91H351.42A4.91,4.91,0,0,0,356.33,74V55.16a10.25,10.25,0,0,1,0-20.5Z" transform="translate(-12.52 -10.91)" fill="#4dc1e6"/><path d="M24.79,33.16a7.08,7.08,0,0,0-3.86,1A3.19,3.19,0,0,0,19.42,37a3.35,3.35,0,0,0,1.51,3q1.52,1,6.42,2.22a17.52,17.52,0,0,1,7.41,3.34q2.49,2.14,2.49,6.33a8.4,8.4,0,0,1-3.15,6.79,12.59,12.59,0,0,1-8.28,2.6,19.44,19.44,0,0,1-13.3-5.16L15.9,52q4.84,4.2,10.06,4.21a6.94,6.94,0,0,0,4.14-1.12,3.52,3.52,0,0,0,1.53-3,3.35,3.35,0,0,0-1.44-2.88,15.26,15.26,0,0,0-5-1.87,44.06,44.06,0,0,1-5.35-1.56A12.16,12.16,0,0,1,16.63,44q-2.83-2.15-2.83-6.58A8,8,0,0,1,17,30.57a13,13,0,0,1,8-2.4,19.14,19.14,0,0,1,6.08,1A16,16,0,0,1,36.29,32l-2.88,4.07A11,11,0,0,0,29.57,34,14.74,14.74,0,0,0,24.79,33.16Z" transform="translate(-12.52 -10.91)" fill="#fff"/><path d="M42.6,31.74a3.2,3.2,0,1,1,2.29,1A3.12,3.12,0,0,1,42.6,31.74Zm4.8,29.17H42.28V36.59H47.4Z" transform="translate(-12.52 -10.91)" fill="#fff"/><path d="M59,47.74V60.91H53.89V36.59H59V41a8.17,8.17,0,0,1,3.32-3.52,9.43,9.43,0,0,1,4.78-1.28q5.76,0,7.81,4.76a10.93,10.93,0,0,1,9-4.76,9,9,0,0,1,6.65,2.52q2.53,2.5,2.54,7.26V60.91H88V47.56q0-6.72-5.58-6.72a6.73,6.73,0,0,0-4.55,1.67,6.32,6.32,0,0,0-2,4.87V60.91H70.72V47.56q0-3.48-1.24-5.1a4.57,4.57,0,0,0-3.88-1.62A6.67,6.67,0,0,0,61,42.6,6.55,6.55,0,0,0,59,47.74Z" transform="translate(-12.52 -10.91)" fill="#fff"/><path d="M112.37,36.22a11.6,11.6,0,0,1,8.37,3.38,12,12,0,0,1,3.47,9,12.49,12.49,0,0,1-3.45,9.14,10.71,10.71,0,0,1-16.3-.5V69.78H99.34V36.59h5.12v4.25Q107.48,36.22,112.37,36.22Zm-8,12.57a8,8,0,0,0,2.1,5.7,6.81,6.81,0,0,0,5.12,2.21,7.3,7.3,0,0,0,5.26-2.19,7.62,7.62,0,0,0,2.24-5.69A8.1,8.1,0,0,0,116.9,43a7,7,0,0,0-5.26-2.31A6.71,6.71,0,0,0,106.47,43,8.27,8.27,0,0,0,104.37,48.79Z" transform="translate(-12.52 -10.91)" fill="#fff"/><path d="M134.27,60.91h-5.12V27h5.12Z" transform="translate(-12.52 -10.91)" fill="#fff"/><path d="M163.39,51H144.33a5.52,5.52,0,0,0,2.42,4.27,8.45,8.45,0,0,0,5.12,1.63c3,0,5.36-1,6.95-2.89l2.92,3.21a13.59,13.59,0,0,1-10.24,4.06,12.21,12.21,0,0,1-8.71-3.4,12,12,0,0,1-3.58-9.15,11.82,11.82,0,0,1,3.65-9.12,12.3,12.3,0,0,1,8.62-3.38,12.52,12.52,0,0,1,8.44,3,10.35,10.35,0,0,1,3.47,8.26Zm-19.06-4h13.94a5.87,5.87,0,0,0-1.92-4.71,7.05,7.05,0,0,0-4.73-1.64,8.09,8.09,0,0,0-5.05,1.71A5.53,5.53,0,0,0,144.33,47Z" transform="translate(-12.52 -10.91)" fill="#fff"/><path d="M212.8,34V61h-5.39V34h-9.69V29.06H222.5V34Z" transform="translate(-12.52 -10.91)" fill="#fff"/><path d="M248.88,61.39a12.29,12.29,0,0,1-8.74-3.45,11.87,11.87,0,0,1-3.65-9,11.73,11.73,0,0,1,3.82-9.08,13.26,13.26,0,0,1,9.3-3.5,12.62,12.62,0,0,1,9.28,3.8l-3,3.7a9.69,9.69,0,0,0-6.35-2.74A8,8,0,0,0,244,43.22a7,7,0,0,0-2.35,5.48,8,8,0,0,0,8.07,8,8.91,8.91,0,0,0,6.42-3.11l3,3.29A14,14,0,0,1,248.88,61.39Z" transform="translate(-12.52 -10.91)" fill="#fff"/><path d="M268.63,61h-5.12V27.1h5.12V47L278.5,36.7h6.59l-9.24,9.65L285.77,61h-6.21l-7.23-10.65-3.7,3.75Z" transform="translate(-12.52 -10.91)" fill="#fff"/><path d="M311.79,51.1H292.73a5.52,5.52,0,0,0,2.42,4.28A8.51,8.51,0,0,0,300.27,57q4.58,0,7-2.88l2.92,3.2a13.57,13.57,0,0,1-10.24,4.07A12.17,12.17,0,0,1,291.19,58a12,12,0,0,1-3.59-9.14,11.8,11.8,0,0,1,3.66-9.12,12.26,12.26,0,0,1,8.62-3.39,12.48,12.48,0,0,1,8.44,3,10.34,10.34,0,0,1,3.47,8.25Zm-19.06-4h13.94a5.87,5.87,0,0,0-1.92-4.71A7,7,0,0,0,300,40.72a8,8,0,0,0-5,1.72A5.51,5.51,0,0,0,292.73,47.08Z" transform="translate(-12.52 -10.91)" fill="#fff"/><path d="M322.63,40.82V53.16a4,4,0,0,0,.91,2.77,3.28,3.28,0,0,0,2.56,1,4.4,4.4,0,0,0,3.16-1.6l2.1,3.61a8.76,8.76,0,0,1-6,2.42,7.67,7.67,0,0,1-5.57-2.26A8.17,8.17,0,0,1,317.51,53V40.82h-3.07V36.7h3.07V29.06h5.12V36.7H329v4.12Z" transform="translate(-12.52 -10.91)" fill="#fff"/><rect x="213.92" width="5" height="5.5" fill="#fff"/><rect x="213.92" y="56.94" width="5" height="6.78" fill="#fff"/><rect x="213.92" y="43.39" width="5" height="6.78" fill="#fff"/><rect x="213.92" y="29.83" width="5" height="6.78" fill="#fff"/><rect x="213.92" y="12.28" width="5" height="6.78" fill="#fff"/><rect x="213.92" y="26.17" width="5" height="24" fill="#fff"/></svg>